<svg width="419" height="109" viewBox="0 0 419 109" fill="none" xmlns="http://www.w3.org/2000/svg">
<rect width="418" height="108" transform="translate(0.212372 0.865601)" fill="black"/>
<path d="M149.133 38.6939C154.342 38.6939 157.937 42.0715 157.937 47.1379V78.7109H152.141L151.554 74.2319C150.527 77.3892 147.739 79.078 144.437 79.078H140.549C135.267 79.078 132.185 75.9207 132.185 70.6341V64.6132C132.185 59.3265 135.487 56.1692 140.842 56.1692H150.967V48.019C150.967 45.3756 149.646 44.054 147.152 44.054H143.557C141.063 44.054 139.742 45.3756 139.742 48.019V51.9105H132.992V47.1379C132.992 42.0715 136.367 38.6939 141.576 38.6939H149.133ZM146.712 73.8648C149.206 73.8648 150.967 72.5431 150.967 69.9732V61.2356H142.97C140.402 61.2356 139.155 62.5572 139.155 65.1271V69.9732C139.155 72.5431 140.402 73.8648 142.97 73.8648H146.712Z" fill="#A4A1AF"/>
<path d="M182.552 38.6939C187.834 38.6939 190.842 41.8512 190.842 47.1379V78.7109H183.873V47.9455C183.873 45.3022 182.552 44.054 180.058 44.054H176.243C173.675 44.054 172.061 45.3022 172.061 47.9455V78.7109H165.091V39.061H171.181L171.621 43.3197C172.721 40.3827 175.362 38.6939 178.37 38.6939H182.552Z" fill="#A4A1AF"/>
<path d="M210.899 73.0571H215.008V78.7109H208.918C203.489 78.7109 199.968 75.2599 199.968 69.8998V44.4211H195.713V39.061H199.968V29.5891L206.937 28.1941V39.061H214.787V44.4211H206.937V69.1655C206.937 71.7354 208.185 73.0571 210.899 73.0571Z" fill="#A4A1AF"/>
<path d="M220.831 78.7109V39.061H227.875V78.7109H220.831Z" fill="#A4A1AF"/>
<path d="M248.585 73.0571H252.693V78.7109H246.604C241.175 78.7109 237.653 75.2599 237.653 69.8998V44.4211H233.398V39.061H237.653V29.5891L244.623 28.1941V39.061H252.473V44.4211H244.623V69.1655C244.623 71.7354 245.87 73.0571 248.585 73.0571Z" fill="#A4A1AF"/>
<path d="M275.978 38.6939C281.26 38.6939 284.268 41.8512 284.268 47.1379V78.7109H277.298V47.9455C277.298 45.3022 275.978 44.054 273.483 44.054H269.668C267.101 44.054 265.487 45.3022 265.487 47.9455V78.7109H258.517V28.211H265.487V42.3652C266.734 40.0156 269.155 38.6939 271.796 38.6939H275.978Z" fill="#A4A1AF"/>
<path d="M316.638 59.3999H298.077V69.8264C298.077 72.4697 299.324 73.7179 301.892 73.7179H305.853C308.421 73.7179 309.668 72.4697 309.668 69.8264V64.8334H316.638V70.6341C316.638 75.7004 313.19 79.078 307.981 79.078H299.764C294.629 79.078 291.107 75.7004 291.107 70.6341V47.1379C291.107 42.0715 294.629 38.6939 299.764 38.6939H307.981C313.19 38.6939 316.638 42.0715 316.638 47.1379V59.3999ZM301.892 44.054C299.324 44.054 298.077 45.3022 298.077 47.9455V54.3336H309.668V47.9455C309.668 45.3022 308.421 44.054 305.853 44.054H301.892Z" fill="#A4A1AF"/>
<path d="M331.419 79.078C326.284 79.078 322.836 75.7004 322.836 70.6341V65.9348H329.659V69.8264C329.659 72.4697 330.906 73.7179 333.4 73.7179H337.435C339.93 73.7179 341.177 72.4697 341.177 69.8264V66.0082C341.177 64.6132 340.517 63.5852 338.976 63.0712L328.265 60.0608C324.89 59.2531 322.836 56.3161 322.836 52.6448V47.1379C322.836 42.0715 326.284 38.6939 331.419 38.6939H339.343C344.625 38.6939 348.073 42.0715 348.073 47.1379V51.6903H341.177V47.9455C341.177 45.3022 339.93 44.054 337.435 44.054H333.4C330.906 44.054 329.659 45.3022 329.659 47.9455V51.1028C329.659 52.7182 330.392 53.8196 332.006 54.3336L341.837 57.0503C346.019 58.1517 348.073 60.3545 348.073 64.8334V70.6341C348.073 75.7004 344.625 79.078 339.343 79.078H331.419Z" fill="#A4A1AF"/>
<path d="M354.594 78.7109V39.061H361.637V78.7109H354.594Z" fill="#A4A1AF"/>
<path d="M376.771 79.078C371.635 79.078 368.187 75.7004 368.187 70.6341V65.9348H375.01V69.8264C375.01 72.4697 376.257 73.7179 378.752 73.7179H382.787C385.281 73.7179 386.528 72.4697 386.528 69.8264V66.0082C386.528 64.6132 385.868 63.5852 384.328 63.0712L373.616 60.0608C370.241 59.2531 368.187 56.3161 368.187 52.6448V47.1379C368.187 42.0715 371.635 38.6939 376.771 38.6939H384.694C389.977 38.6939 393.425 42.0715 393.425 47.1379V51.6903H386.528V47.9455C386.528 45.3022 385.281 44.054 382.787 44.054H378.752C376.257 44.054 375.01 45.3022 375.01 47.9455V51.1028C375.01 52.7182 375.744 53.8196 377.358 54.3336L387.189 57.0503C391.371 58.1517 393.425 60.3545 393.425 64.8334V70.6341C393.425 75.7004 389.977 79.078 384.694 79.078H376.771Z" fill="#A4A1AF"/>
<path d="M37.6382 46.7919C37.6382 50.9037 35.7307 53.6939 32.4292 54.8687C35.7307 56.0435 37.6382 58.8337 37.6382 62.9455V74.2531C37.6382 76.8964 38.9587 78.218 41.6732 78.218H45.4882V83.7984H39.7657C34.4101 83.7984 30.8886 80.3474 30.8886 74.9873V61.6239C30.8886 58.9805 29.568 57.5855 26.9269 57.5855H24.2124V52.152H26.9269C29.568 52.152 30.8886 50.7569 30.8886 48.1136V34.6767C30.8886 29.3166 34.4101 25.8656 39.7657 25.8656H45.4882V31.4459H41.6732C38.9587 31.4459 37.6382 32.7676 37.6382 35.4109V46.7919Z" fill="#A4A1AF"/>
<path d="M110.47 52.152H113.184V57.5855H110.47C107.829 57.5855 106.508 58.9805 106.508 61.6239V74.9873C106.508 80.3474 102.987 83.7984 97.5577 83.7984H91.9086V78.218H95.6502C98.3647 78.218 99.6852 76.8964 99.6852 74.2531V62.9455C99.6852 58.8337 101.666 56.0435 104.894 54.8687C101.666 53.6939 99.6852 50.9037 99.6852 46.7919V35.4109C99.6852 32.7676 98.3647 31.4459 95.6502 31.4459H91.9086V25.8656H97.5577C102.987 25.8656 106.508 29.3166 106.508 34.6767V48.1136C106.508 50.7569 107.829 52.152 110.47 52.152Z" fill="#A4A1AF"/>
<ellipse cx="68.6983" cy="54.832" rx="9.86699" ry="12.7474" fill="#9B82FC"/>
<g opacity="0.7">
<path d="M49.6861 41.1205C49.899 40.7513 50.0055 40.5668 50.1224 40.4291C50.6584 39.798 51.5286 39.5646 52.308 39.843C52.478 39.9037 52.6625 40.0103 53.0313 40.2234L57.0344 42.5365C57.4033 42.7496 57.5877 42.8562 57.7252 42.9732C58.3558 43.5096 58.589 44.3805 58.3109 45.1606C58.2502 45.3308 58.1437 45.5154 57.9308 45.8845C57.7178 46.2537 57.6113 46.4383 57.4944 46.5759C56.9585 47.207 56.0883 47.4404 55.3088 47.162C55.1388 47.1013 54.9544 46.9948 54.5855 46.7816L50.5824 44.4685C50.2136 44.2554 50.0291 44.1488 49.8916 44.0318C49.261 43.4954 49.0278 42.6245 49.306 41.8444C49.3666 41.6742 49.4731 41.4897 49.6861 41.1205Z" fill="#9B82FC"/>
<path d="M48.1357 54.0149C48.1032 54.1926 48.1032 54.4057 48.1032 54.832C48.1032 55.2583 48.1032 55.4714 48.1357 55.6491C48.2846 56.4639 48.9216 57.1015 49.7357 57.2504C49.9133 57.2829 50.1262 57.2829 50.5521 57.2829H53.4878C53.9137 57.2829 54.1267 57.2829 54.3042 57.2504C55.1183 57.1015 55.7554 56.4639 55.9042 55.6491C55.9367 55.4714 55.9367 55.2583 55.9367 54.832C55.9367 54.4057 55.9367 54.1926 55.9042 54.0149C55.7554 53.2001 55.1183 52.5626 54.3042 52.4136C54.1267 52.3811 53.9137 52.3811 53.4878 52.3811H50.5521C50.1262 52.3811 49.9133 52.3811 49.7357 52.4136C48.9216 52.5626 48.2846 53.2001 48.1357 54.0149Z" fill="#9B82FC"/>
<path d="M81.4926 54.0149C81.4601 54.1926 81.4601 54.4057 81.4601 54.832C81.4601 55.2583 81.4601 55.4714 81.4926 55.6491C81.6414 56.4639 82.2785 57.1015 83.0926 57.2504C83.2701 57.2829 83.4831 57.2829 83.909 57.2829H86.8447C87.2706 57.2829 87.4835 57.2829 87.6611 57.2504C88.4752 57.1015 89.1122 56.4639 89.2611 55.6491C89.2936 55.4714 89.2936 55.2583 89.2936 54.832C89.2936 54.4057 89.2936 54.1926 89.2611 54.0149C89.1122 53.2001 88.4752 52.5626 87.6611 52.4136C87.4835 52.3811 87.2706 52.3811 86.8447 52.3811H83.909C83.4831 52.3811 83.2701 52.3811 83.0926 52.4136C82.2785 52.5626 81.6414 53.2001 81.4926 54.0149Z" fill="#9B82FC"/>
<path d="M79.4659 63.7796C79.253 64.1486 79.1465 64.3333 79.0858 64.5034C78.8077 65.2835 79.0409 66.1545 79.6715 66.6909C79.809 66.8079 79.9934 66.9144 80.3623 67.1276L84.3652 69.4406C84.734 69.6537 84.9185 69.7603 85.0885 69.821C85.8679 70.0993 86.7382 69.866 87.2741 69.2349C87.391 69.0972 87.4975 68.9126 87.7105 68.5435C87.9234 68.1745 88.0299 67.9897 88.0906 67.8196C88.3687 67.0395 88.1355 66.1685 87.5049 65.6321C87.3674 65.5151 87.183 65.4086 86.8141 65.1954L82.8112 62.8825C82.4424 62.6694 82.2579 62.5627 82.0879 62.502C81.3085 62.2237 80.4382 62.4571 79.9023 63.0882C79.7854 63.2258 79.6789 63.4104 79.4659 63.7796Z" fill="#9B82FC"/>
<path d="M49.685 68.5442C49.472 68.175 49.3655 67.9904 49.3049 67.8203C49.0268 67.0402 49.2599 66.1692 49.8905 65.6328C50.028 65.5158 50.2125 65.4093 50.5813 65.1961L54.5855 62.8824C54.9544 62.6692 55.1388 62.5627 55.3088 62.502C56.0883 62.2236 56.9585 62.457 57.4945 63.0881C57.6114 63.2257 57.7179 63.4103 57.9308 63.7795C58.1438 64.1486 58.2503 64.3332 58.3109 64.5034C58.589 65.2835 58.3559 66.1544 57.7253 66.6908C57.5878 66.8078 57.4033 66.9144 57.0345 67.1275L53.0302 69.4413C52.6615 69.6543 52.4769 69.761 52.307 69.8217C51.5275 70.1 50.6573 69.8666 50.1213 69.2355C50.0044 69.0979 49.8979 68.9133 49.685 68.5442Z" fill="#9B82FC"/>
<path d="M79.0859 45.1607C79.1466 45.3308 79.253 45.5154 79.466 45.8846C79.679 46.2537 79.7854 46.4383 79.9023 46.5759C80.4383 47.2071 81.3085 47.4404 82.088 47.1621C82.258 47.1014 82.4424 46.9948 82.8113 46.7817L86.8135 44.4691C87.1823 44.2559 87.3668 44.1494 87.5043 44.0324C88.1349 43.496 88.3681 42.625 88.0899 41.8449C88.0293 41.6748 87.9228 41.4902 87.7098 41.121C87.4969 40.7519 87.3904 40.5673 87.2735 40.4296C86.7375 39.7985 85.8673 39.5652 85.0879 39.8435C84.9179 39.9042 84.7334 40.0108 84.3646 40.2239L80.3624 42.5365C79.9935 42.7497 79.8091 42.8562 79.6715 42.9732C79.041 43.5096 78.8078 44.3806 79.0859 45.1607Z" fill="#9B82FC"/>
</g>
</svg>
