<svg width="418" height="109" viewBox="0 0 418 109" fill="none" xmlns="http://www.w3.org/2000/svg">
<rect width="418" height="108" transform="translate(0 0.865601)" fill="white"/>
<path d="M148.92 38.6939C154.129 38.6939 157.724 42.0715 157.724 47.1379V78.7109H151.928L151.341 74.2319C150.314 77.3892 147.526 79.078 144.225 79.078H140.337C135.054 79.078 131.973 75.9207 131.973 70.6341V64.6132C131.973 59.3265 135.274 56.1692 140.63 56.1692H150.754V48.019C150.754 45.3756 149.434 44.054 146.939 44.054H143.345C140.85 44.054 139.53 45.3756 139.53 48.019V51.9105H132.78V47.1379C132.78 42.0715 136.155 38.6939 141.364 38.6939H148.92ZM146.499 73.8648C148.994 73.8648 150.754 72.5431 150.754 69.9732V61.2356H142.758C140.19 61.2356 138.943 62.5572 138.943 65.1271V69.9732C138.943 72.5431 140.19 73.8648 142.758 73.8648H146.499Z" fill="#24222A"/>
<path d="M182.34 38.6939C187.622 38.6939 190.63 41.8512 190.63 47.1379V78.7109H183.66V47.9455C183.66 45.3022 182.34 44.054 179.845 44.054H176.03C173.463 44.054 171.849 45.3022 171.849 47.9455V78.7109H164.879V39.061H170.968L171.408 43.3197C172.509 40.3827 175.15 38.6939 178.158 38.6939H182.34Z" fill="#24222A"/>
<path d="M210.687 73.0571H214.795V78.7109H208.706C203.277 78.7109 199.755 75.2599 199.755 69.8998V44.4211H195.5V39.061H199.755V29.5891L206.725 28.1941V39.061H214.575V44.4211H206.725V69.1655C206.725 71.7354 207.972 73.0571 210.687 73.0571Z" fill="#24222A"/>
<path d="M220.619 78.7109V39.061H227.662V78.7109H220.619Z" fill="#24222A"/>
<path d="M248.372 73.0571H252.481V78.7109H246.391C240.962 78.7109 237.441 75.2599 237.441 69.8998V44.4211H233.186V39.061H237.441V29.5891L244.411 28.1941V39.061H252.261V44.4211H244.411V69.1655C244.411 71.7354 245.658 73.0571 248.372 73.0571Z" fill="#24222A"/>
<path d="M275.765 38.6939C281.048 38.6939 284.056 41.8512 284.056 47.1379V78.7109H277.086V47.9455C277.086 45.3022 275.765 44.054 273.271 44.054H269.456C266.888 44.054 265.274 45.3022 265.274 47.9455V78.7109H258.305V28.211H265.274V42.3652C266.521 40.0156 268.943 38.6939 271.584 38.6939H275.765Z" fill="#24222A"/>
<path d="M316.426 59.3999H297.864V69.8264C297.864 72.4697 299.112 73.7179 301.679 73.7179H305.641C308.209 73.7179 309.456 72.4697 309.456 69.8264V64.8334H316.426V70.6341C316.426 75.7004 312.978 79.078 307.769 79.078H299.552C294.416 79.078 290.895 75.7004 290.895 70.6341V47.1379C290.895 42.0715 294.416 38.6939 299.552 38.6939H307.769C312.978 38.6939 316.426 42.0715 316.426 47.1379V59.3999ZM301.679 44.054C299.112 44.054 297.864 45.3022 297.864 47.9455V54.3336H309.456V47.9455C309.456 45.3022 308.209 44.054 305.641 44.054H301.679Z" fill="#24222A"/>
<path d="M331.207 79.078C326.071 79.078 322.623 75.7004 322.623 70.6341V65.9348H329.446V69.8264C329.446 72.4697 330.693 73.7179 333.188 73.7179H337.223C339.717 73.7179 340.965 72.4697 340.965 69.8264V66.0082C340.965 64.6132 340.304 63.5852 338.764 63.0712L328.052 60.0608C324.677 59.2531 322.623 56.3161 322.623 52.6448V47.1379C322.623 42.0715 326.071 38.6939 331.207 38.6939H339.13C344.413 38.6939 347.861 42.0715 347.861 47.1379V51.6903H340.965V47.9455C340.965 45.3022 339.717 44.054 337.223 44.054H333.188C330.693 44.054 329.446 45.3022 329.446 47.9455V51.1028C329.446 52.7182 330.18 53.8196 331.794 54.3336L341.625 57.0503C345.807 58.1517 347.861 60.3545 347.861 64.8334V70.6341C347.861 75.7004 344.413 79.078 339.13 79.078H331.207Z" fill="#24222A"/>
<path d="M354.381 78.7109V39.061H361.424V78.7109H354.381Z" fill="#24222A"/>
<path d="M376.559 79.078C371.423 79.078 367.975 75.7004 367.975 70.6341V65.9348H374.798V69.8264C374.798 72.4697 376.045 73.7179 378.539 73.7179H382.574C385.069 73.7179 386.316 72.4697 386.316 69.8264V66.0082C386.316 64.6132 385.656 63.5852 384.115 63.0712L373.404 60.0608C370.029 59.2531 367.975 56.3161 367.975 52.6448V47.1379C367.975 42.0715 371.423 38.6939 376.559 38.6939H384.482C389.764 38.6939 393.212 42.0715 393.212 47.1379V51.6903H386.316V47.9455C386.316 45.3022 385.069 44.054 382.574 44.054H378.539C376.045 44.054 374.798 45.3022 374.798 47.9455V51.1028C374.798 52.7182 375.531 53.8196 377.145 54.3336L386.976 57.0503C391.158 58.1517 393.212 60.3545 393.212 64.8334V70.6341C393.212 75.7004 389.764 79.078 384.482 79.078H376.559Z" fill="#24222A"/>
<path d="M37.4258 46.7919C37.4258 50.9037 35.5183 53.6939 32.2169 54.8687C35.5183 56.0435 37.4258 58.8337 37.4258 62.9455V74.2531C37.4258 76.8964 38.7464 78.218 41.4609 78.218H45.2758V83.7984H39.5534C34.1977 83.7984 30.6762 80.3474 30.6762 74.9873V61.6239C30.6762 58.9805 29.3556 57.5855 26.7145 57.5855H24V52.152H26.7145C29.3556 52.152 30.6762 50.7569 30.6762 48.1136V34.6767C30.6762 29.3166 34.1977 25.8656 39.5534 25.8656H45.2758V31.4459H41.4609C38.7464 31.4459 37.4258 32.7676 37.4258 35.4109V46.7919Z" fill="#24222A"/>
<path d="M110.258 52.152H112.972V57.5855H110.258C107.616 57.5855 106.296 58.9805 106.296 61.6239V74.9873C106.296 80.3474 102.774 83.7984 97.3453 83.7984H91.6962V78.218H95.4378C98.1523 78.218 99.4729 76.8964 99.4729 74.2531V62.9455C99.4729 58.8337 101.454 56.0435 104.682 54.8687C101.454 53.6939 99.4729 50.9037 99.4729 46.7919V35.4109C99.4729 32.7676 98.1523 31.4459 95.4378 31.4459H91.6962V25.8656H97.3453C102.774 25.8656 106.296 29.3166 106.296 34.6767V48.1136C106.296 50.7569 107.616 52.152 110.258 52.152Z" fill="#24222A"/>
<ellipse cx="68.486" cy="54.832" rx="9.86699" ry="12.7474" fill="#4429B3"/>
<g opacity="0.7">
<path d="M49.4737 41.1205C49.6866 40.7513 49.7931 40.5668 49.91 40.4291C50.446 39.798 51.3162 39.5646 52.0957 39.843C52.2657 39.9037 52.4501 40.0103 52.8189 40.2234L56.822 42.5365C57.1909 42.7496 57.3753 42.8562 57.5129 42.9732C58.1434 43.5096 58.3766 44.3805 58.0985 45.1606C58.0378 45.3308 57.9314 45.5154 57.7184 45.8845C57.5054 46.2537 57.399 46.4383 57.2821 46.5759C56.7461 47.207 55.8759 47.4404 55.0964 47.162C54.9264 47.1013 54.742 46.9948 54.3731 46.7816L50.37 44.4685C50.0012 44.2554 49.8168 44.1488 49.6792 44.0318C49.0486 43.4954 48.8155 42.6245 49.0936 41.8444C49.1542 41.6742 49.2607 41.4897 49.4737 41.1205Z" fill="#4429B3"/>
<path d="M47.9233 54.0149C47.8909 54.1926 47.8909 54.4057 47.8909 54.832C47.8909 55.2583 47.8909 55.4714 47.9233 55.6491C48.0722 56.4639 48.7092 57.1015 49.5233 57.2504C49.7009 57.2829 49.9138 57.2829 50.3398 57.2829H53.2754C53.7013 57.2829 53.9143 57.2829 54.0918 57.2504C54.9059 57.1015 55.543 56.4639 55.6918 55.6491C55.7243 55.4714 55.7243 55.2583 55.7243 54.832C55.7243 54.4057 55.7243 54.1926 55.6918 54.0149C55.543 53.2001 54.9059 52.5626 54.0918 52.4136C53.9143 52.3811 53.7013 52.3811 53.2754 52.3811H50.3398C49.9138 52.3811 49.7009 52.3811 49.5233 52.4136C48.7092 52.5626 48.0722 53.2001 47.9233 54.0149Z" fill="#4429B3"/>
<path d="M81.2802 54.0149C81.2477 54.1926 81.2477 54.4057 81.2477 54.832C81.2477 55.2583 81.2477 55.4714 81.2802 55.6491C81.429 56.4639 82.0661 57.1015 82.8802 57.2504C83.0577 57.2829 83.2707 57.2829 83.6966 57.2829H86.6323C87.0582 57.2829 87.2711 57.2829 87.4487 57.2504C88.2628 57.1015 88.8998 56.4639 89.0487 55.6491C89.0812 55.4714 89.0812 55.2583 89.0812 54.832C89.0812 54.4057 89.0812 54.1926 89.0487 54.0149C88.8998 53.2001 88.2628 52.5626 87.4487 52.4136C87.2711 52.3811 87.0582 52.3811 86.6323 52.3811H83.6966C83.2707 52.3811 83.0577 52.3811 82.8802 52.4136C82.0661 52.5626 81.429 53.2001 81.2802 54.0149Z" fill="#4429B3"/>
<path d="M79.2536 63.7796C79.0407 64.1486 78.9341 64.3333 78.8735 64.5034C78.5953 65.2835 78.8285 66.1545 79.4591 66.6909C79.5966 66.8079 79.7811 66.9144 80.1499 67.1276L84.1528 69.4406C84.5216 69.6537 84.7061 69.7603 84.8761 69.821C85.6556 70.0993 86.5258 69.866 87.0617 69.2349C87.1786 69.0972 87.2851 68.9126 87.4981 68.5435C87.711 68.1745 87.8175 67.9897 87.8782 67.8196C88.1563 67.0395 87.9231 66.1685 87.2925 65.6321C87.155 65.5151 86.9706 65.4086 86.6017 65.1954L82.5988 62.8825C82.2301 62.6694 82.0455 62.5627 81.8755 62.502C81.0961 62.2237 80.2259 62.4571 79.6899 63.0882C79.573 63.2258 79.4665 63.4104 79.2536 63.7796Z" fill="#4429B3"/>
<path d="M49.4726 68.5442C49.2596 68.175 49.1531 67.9904 49.0925 67.8203C48.8144 67.0402 49.0475 66.1692 49.6781 65.6328C49.8157 65.5158 50.0001 65.4093 50.3689 65.1961L54.3732 62.8824C54.742 62.6692 54.9264 62.5627 55.0964 62.502C55.8759 62.2236 56.7461 62.457 57.2821 63.0881C57.399 63.2257 57.5055 63.4103 57.7184 63.7795C57.9314 64.1486 58.0379 64.3332 58.0985 64.5034C58.3766 65.2835 58.1435 66.1544 57.5129 66.6908C57.3754 66.8078 57.191 66.9144 56.8222 67.1275L52.8179 69.4413C52.4491 69.6543 52.2645 69.761 52.0946 69.8217C51.3151 70.1 50.4449 69.8666 49.9089 69.2355C49.792 69.0979 49.6855 68.9133 49.4726 68.5442Z" fill="#4429B3"/>
<path d="M78.8735 45.1607C78.9342 45.3308 79.0407 45.5154 79.2536 45.8846C79.4666 46.2537 79.5731 46.4383 79.69 46.5759C80.2259 47.2071 81.0961 47.4404 81.8756 47.1621C82.0456 47.1014 82.23 46.9948 82.5989 46.7817L86.6011 44.4691C86.97 44.2559 87.1544 44.1494 87.2919 44.0324C87.9225 43.496 88.1557 42.625 87.8776 41.8449C87.8169 41.6748 87.7104 41.4902 87.4975 41.121C87.2845 40.7519 87.178 40.5673 87.0611 40.4296C86.5252 39.7985 85.6549 39.5652 84.8755 39.8435C84.7055 39.9042 84.521 40.0108 84.1522 40.2239L80.15 42.5365C79.7811 42.7497 79.5967 42.8562 79.4592 42.9732C78.8286 43.5096 78.5954 44.3806 78.8735 45.1607Z" fill="#4429B3"/>
</g>
</svg>
