<?xml version="1.0" standalone="no"?>
<!DOCTYPE svg PUBLIC "-//W3C//DTD SVG 20010904//EN"
 "http://www.w3.org/TR/2001/REC-SVG-20010904/DTD/svg10.dtd">
<svg version="1.0" xmlns="http://www.w3.org/2000/svg"
 width="1546.000000pt" height="518.000000pt" viewBox="0 0 1546.000000 518.000000"
 preserveAspectRatio="xMidYMid meet">

<g transform="translate(0.000000,518.000000) scale(0.100000,-0.100000)"
fill="#000000" stroke="none">
<path d="M2415 5103 c-187 -12 -428 -59 -620 -121 -649 -211 -1195 -696 -1496
-1327 -99 -209 -161 -409 -206 -663 -24 -142 -27 -181 -27 -402 -1 -255 8
-346 56 -555 167 -744 658 -1366 1350 -1711 464 -232 1015 -312 1534 -224 699
119 1303 516 1696 1115 282 429 423 936 405 1450 -13 364 -92 690 -241 1000
-182 380 -436 689 -769 939 -486 363 -1074 538 -1682 499z m519 -174 c752
-112 1403 -576 1755 -1249 129 -248 205 -488 248 -785 19 -134 21 -473 4 -595
-72 -504 -259 -917 -579 -1280 -361 -410 -828 -670 -1387 -772 -164 -30 -603
-33 -760 -4 -264 47 -462 111 -685 222 -239 118 -441 264 -624 449 -409 412
-643 927 -687 1508 -16 217 -1 433 47 656 135 635 511 1169 1073 1524 102 65
317 168 436 211 378 134 772 173 1159 115z"/>
<path d="M2505 4558 c-44 -28 -174 -112 -290 -186 -115 -74 -259 -167 -319
-206 l-109 -70 6 -358 c4 -236 3 -358 -4 -358 -5 0 -35 16 -66 36 -130 83
-224 114 -368 121 -124 6 -210 -8 -320 -52 -82 -33 -205 -101 -222 -123 -10
-12 -13 -79 -13 -256 0 -133 4 -246 8 -252 4 -6 45 -35 92 -64 133 -83 130
-77 68 -138 -29 -28 -78 -69 -108 -90 l-55 -38 -2 -284 -3 -285 63 -41 c34
-22 83 -54 109 -70 l48 -29 0 -341 0 -341 196 -123 c108 -67 204 -125 214
-127 19 -5 28 0 425 258 169 110 280 179 288 179 4 0 7 -108 7 -239 l0 -240
38 -26 c20 -14 75 -50 122 -80 122 -78 216 -137 251 -159 17 -11 38 -16 52
-12 12 3 112 65 222 138 l200 133 3 244 c2 215 4 242 18 237 21 -8 167 -100
419 -262 274 -177 268 -174 282 -174 11 0 60 28 163 95 19 12 78 50 132 85 59
38 98 70 102 83 3 12 6 153 6 312 0 160 3 306 6 325 6 31 18 42 110 102 l104
68 0 286 c0 326 13 282 -107 368 -66 48 -98 87 -90 110 3 7 48 40 101 72 56
34 97 67 100 79 3 11 6 127 6 257 l0 238 -47 30 c-70 44 -178 95 -258 122 -60
19 -90 23 -205 23 -178 0 -264 -27 -427 -131 l-53 -34 0 333 c0 182 -3 349 -7
370 -7 45 30 19 -458 327 -176 112 -327 205 -335 206 -8 2 -51 -20 -95 -48z
m326 -273 c118 -75 258 -165 311 -198 53 -34 97 -64 97 -67 0 -3 -61 -43 -136
-90 -75 -47 -219 -138 -320 -202 l-183 -117 -113 70 c-61 39 -205 130 -319
201 -115 71 -208 133 -208 136 0 4 33 28 73 53 228 147 324 209 432 280 66 43
127 77 136 75 8 -2 112 -65 230 -141z m-673 -587 c178 -110 285 -178 395 -252
l37 -26 0 -380 c0 -220 4 -388 9 -398 38 -69 81 -261 81 -363 0 -141 -25 -201
-152 -369 -47 -60 -78 -137 -78 -189 0 -33 23 -120 40 -150 29 -55 97 -114
175 -153 44 -22 113 -60 153 -85 l72 -45 0 -182 0 -181 -58 -37 c-32 -21 -63
-38 -69 -38 -7 0 -10 60 -9 172 l1 171 -75 30 c-41 16 -103 40 -136 54 -214
85 -336 318 -279 536 21 81 45 125 120 214 95 113 117 165 123 288 3 83 0 119
-22 212 -22 96 -26 134 -26 277 0 104 -4 166 -10 166 -5 0 -10 -12 -10 -26 0
-36 -46 -170 -77 -224 -15 -25 -87 -108 -162 -185 -144 -148 -178 -200 -200
-304 -16 -77 -59 -149 -114 -193 -27 -21 -53 -38 -58 -38 -5 0 -9 60 -9 133 0
213 33 292 197 469 129 140 181 234 190 344 3 40 2 85 -2 100 -7 28 -8 28 -24
-22 -46 -137 -164 -262 -295 -311 -28 -11 -97 -18 -218 -23 -172 -7 -179 -8
-241 -38 -62 -31 -89 -55 -185 -170 -23 -28 -69 -68 -102 -89 l-60 -38 0 -192
c0 -106 -3 -193 -8 -193 -4 0 -30 16 -57 36 l-50 35 -5 197 c-5 185 -4 197 14
212 61 48 113 102 152 155 54 77 138 156 194 185 89 45 122 52 290 60 195 8
242 23 314 100 67 71 88 121 95 222 4 48 5 92 3 97 -2 6 -19 20 -38 31 l-34
22 0 249 c0 137 3 249 6 249 3 0 94 -55 202 -122z m1082 -127 l0 -249 -37 -23
c-21 -12 -40 -24 -42 -25 -2 -2 -3 -41 -2 -86 1 -67 7 -93 28 -136 41 -80 87
-128 161 -164 64 -32 71 -33 232 -39 256 -9 339 -52 490 -253 40 -53 88 -104
114 -121 l46 -30 0 -202 0 -203 -55 -31 c-30 -17 -57 -29 -60 -27 -4 2 -6 87
-5 189 l1 186 -42 18 c-44 21 -114 84 -193 178 -92 110 -137 127 -368 136
-173 7 -178 8 -245 41 -40 20 -89 55 -118 85 -50 51 -111 155 -135 228 -21 67
-33 44 -28 -55 8 -152 47 -230 199 -392 156 -167 187 -241 191 -464 2 -72 -1
-132 -5 -132 -5 0 -29 14 -53 32 -52 37 -100 105 -115 163 -46 168 -53 180
-195 325 -118 121 -180 209 -216 306 -21 55 -22 79 -26 373 l-3 313 23 17 c13
9 100 65 193 125 249 159 260 166 263 166 1 0 2 -112 2 -249z m-1786 -186
c168 -44 296 -160 341 -310 l14 -46 -34 -15 c-73 -30 -126 -11 -173 63 -43 67
-77 97 -147 130 -80 37 -194 39 -272 4 l-52 -23 -76 49 c-76 49 -76 50 -53 65
48 31 130 69 181 83 69 18 199 19 271 0z m2550 -1 c63 -16 196 -80 196 -95 0
-4 -34 -29 -75 -54 l-75 -47 -53 23 c-40 18 -70 23 -132 23 -129 0 -207 -46
-288 -170 -39 -59 -81 -75 -147 -55 -51 15 -52 32 -5 130 59 122 165 208 305
245 74 20 198 20 274 0z m-2986 -311 c26 -14 62 -37 80 -50 31 -23 32 -26 32
-99 0 -41 -4 -74 -10 -74 -5 0 -43 21 -85 46 l-75 45 0 80 c0 43 3 79 6 79 3
0 26 -12 52 -27z m3202 -53 l0 -79 -70 -46 c-39 -25 -75 -45 -80 -45 -6 0 -10
35 -10 79 l0 79 78 46 c42 25 78 45 80 46 1 0 2 -36 2 -80z m-2842 23 l75 -46
-79 -28 c-43 -16 -80 -29 -81 -29 -2 0 -3 34 -3 75 0 41 3 75 7 75 3 0 40 -21
81 -47z m2510 -66 l-3 -33 -77 27 -77 26 77 46 77 46 3 -40 c2 -22 2 -54 0
-72z m-2329 -413 c12 -15 21 -35 21 -46 0 -25 -44 -68 -70 -68 -26 0 -70 43
-70 68 0 33 38 72 70 72 19 0 36 -9 49 -26z m231 6 c29 -29 26 -74 -7 -100
-47 -37 -103 -8 -103 54 0 60 67 89 110 46z m1701 -1 c28 -28 22 -76 -13 -102
-68 -51 -143 46 -82 107 22 22 70 20 95 -5z m234 -4 c14 -13 25 -33 25 -45 0
-26 -43 -70 -68 -70 -33 0 -72 38 -72 71 0 63 70 90 115 44z m-1342 -14 c63
-24 44 -131 -23 -131 -36 0 -59 19 -66 57 -5 26 -1 37 19 57 29 29 35 30 70
17z m481 -12 c51 -40 25 -119 -40 -119 -62 0 -88 80 -38 119 15 12 32 21 39
21 7 0 24 -9 39 -21z m-615 -176 c16 -56 13 -176 -5 -247 -29 -116 -79 -202
-168 -292 -66 -67 -99 -91 -162 -121 l-79 -38 -215 0 -215 0 -55 -30 c-30 -16
-83 -56 -117 -89 l-63 -58 0 110 0 110 48 35 c117 86 199 105 372 86 189 -20
299 11 411 117 72 70 110 133 144 244 15 47 37 108 51 137 13 28 24 57 24 62
0 26 20 8 29 -26z m744 -26 c13 -28 32 -81 41 -117 31 -112 73 -189 145 -260
120 -119 225 -151 430 -130 112 11 133 11 191 -4 70 -18 139 -54 183 -94 26
-25 27 -29 27 -129 l0 -103 -72 61 c-40 34 -92 70 -116 81 -53 24 -155 32
-249 21 -40 -5 -107 -6 -150 -1 -261 27 -492 301 -493 585 0 60 20 154 31 147
4 -2 19 -28 32 -57z m-1589 -135 c4 -87 4 -165 1 -173 -5 -13 -133 -99 -149
-99 -3 0 -6 77 -6 170 l0 170 68 44 c37 25 70 45 73 45 3 1 9 -70 13 -157z
m2467 113 l69 -45 0 -174 0 -175 -75 50 -75 49 0 170 c0 94 3 170 6 170 3 0
37 -20 75 -45z m-2191 -64 l0 -69 -50 -31 c-28 -17 -52 -31 -55 -31 -3 0 -5
31 -5 69 l0 69 48 30 c26 17 50 31 55 31 4 1 7 -30 7 -68z m1885 36 l50 -32 3
-73 c2 -39 0 -72 -3 -72 -3 0 -30 18 -60 40 l-54 40 1 65 c0 36 4 65 7 65 3 0
29 -15 56 -33z m-712 -239 c23 -27 22 -63 -4 -89 -28 -28 -76 -22 -102 13 -17
23 -18 31 -8 56 22 53 77 62 114 20z m-158 -233 c14 -13 25 -33 25 -43 0 -30
-38 -72 -66 -72 -30 0 -74 41 -74 70 0 27 43 70 70 70 12 0 32 -11 45 -25z
m296 7 c47 -39 16 -122 -47 -122 -32 0 -64 34 -64 68 0 32 8 45 35 60 29 16
50 15 76 -6z m-900 -210 c45 -38 16 -122 -43 -122 -25 0 -68 44 -68 70 0 26
43 70 68 70 11 0 30 -8 43 -18z m792 -14 c27 -36 15 -76 -29 -94 -48 -20 -78
0 -82 53 -3 34 1 44 20 57 32 23 67 16 91 -16z m304 10 c30 -28 29 -63 -2 -93
-30 -31 -52 -31 -82 -3 -29 27 -30 71 -3 98 26 26 58 25 87 -2z m-1333 -99
c33 -26 34 -62 1 -94 -28 -29 -42 -31 -73 -9 -33 23 -28 93 8 111 33 17 33 16
64 -8z m1563 -1 c42 -40 25 -103 -32 -114 -41 -8 -75 24 -75 71 0 59 63 85
107 43z m-1761 -160 l5 -147 -55 -36 c-93 -59 -86 -70 -86 129 0 97 -4 176 -8
176 -5 0 -17 7 -28 15 -17 13 -10 15 74 12 l92 -2 6 -147z m2047 133 c-22 -19
-23 -25 -23 -190 0 -109 -4 -171 -10 -171 -6 0 -39 19 -75 42 l-65 42 1 148 0
148 97 0 c96 -1 97 -1 75 -19z m-2427 -53 l79 -53 3 -127 c1 -71 -1 -128 -5
-128 -4 0 -46 24 -93 54 l-85 53 -3 126 c-2 101 0 127 11 127 7 0 49 -24 93
-52z m2730 26 c-3 -9 -6 -64 -6 -124 l0 -108 -80 -51 -81 -51 3 131 3 131 70
43 c75 47 101 55 91 29z m-1611 -274 c39 -27 93 -63 121 -80 29 -16 57 -36 63
-44 8 -9 11 -61 9 -159 l-3 -146 -67 42 c-37 23 -99 61 -138 85 l-70 44 0 154
c0 85 3 154 8 154 4 0 39 -23 77 -50z"/>
<path d="M2150 3473 c-58 -21 -82 -93 -54 -161 51 -128 214 -107 214 28 0 91
-84 161 -160 133z"/>
<path d="M2934 3461 c-45 -28 -71 -98 -55 -151 14 -46 62 -90 99 -90 37 0 88
33 112 72 35 57 19 152 -29 178 -31 16 -93 12 -127 -9z"/>
<path d="M6250 2496 l0 -726 303 0 c329 0 393 8 486 55 28 14 69 43 90 64 125
125 132 363 16 515 -31 41 -107 92 -150 101 -59 13 -59 16 -4 41 67 31 113 74
147 139 25 45 27 60 27 160 0 98 -3 116 -27 166 -34 75 -95 134 -176 172 l-67
32 -322 3 -323 3 0 -725z m547 604 c160 -21 243 -111 243 -264 0 -79 -32 -149
-91 -199 -68 -59 -112 -67 -351 -67 l-208 0 0 270 0 270 168 0 c92 0 200 -5
239 -10z m135 -688 c78 -38 120 -84 149 -162 42 -112 6 -238 -86 -302 -70 -48
-135 -58 -382 -58 l-223 0 0 281 0 280 238 -3 238 -3 66 -33z"/>
<path d="M7550 2495 l0 -725 60 0 60 0 0 725 0 725 -60 0 -60 0 0 -725z"/>
<path d="M10450 2990 l0 -130 -80 0 -80 0 0 -55 0 -55 80 0 80 0 0 -395 c0
-428 0 -429 56 -502 51 -67 168 -111 264 -98 71 10 74 13 58 74 l-13 53 -72 1
c-82 2 -116 21 -145 78 -16 31 -18 72 -18 412 l0 377 115 0 115 0 0 55 0 55
-115 0 -115 0 0 130 0 130 -65 0 -65 0 0 -130z"/>
<path d="M8377 2869 c-170 -25 -312 -163 -373 -365 -28 -91 -26 -305 3 -399
46 -146 136 -256 260 -317 66 -32 71 -33 193 -33 120 0 128 1 193 32 182 86
287 281 287 530 -1 175 -49 308 -152 418 -72 78 -152 120 -253 135 -78 11 -78
11 -158 -1z m227 -143 c128 -63 206 -218 206 -413 0 -102 -14 -171 -51 -249
-60 -129 -165 -198 -299 -197 -99 0 -162 27 -230 99 -87 92 -125 216 -117 379
11 203 98 346 242 398 72 26 176 19 249 -17z"/>
<path d="M9578 2869 c-168 -24 -314 -166 -372 -359 -26 -85 -31 -239 -12 -340
33 -175 134 -317 273 -383 65 -31 73 -32 193 -32 120 0 128 1 192 32 37 17 87
50 112 73 47 43 99 136 111 198 l7 32 -66 0 -65 0 -12 -41 c-18 -58 -87 -132
-151 -159 -68 -30 -161 -32 -238 -6 -66 23 -155 107 -188 179 -49 104 -66 261
-41 379 48 230 236 361 435 303 48 -13 69 -27 114 -73 32 -33 60 -72 66 -92
l10 -35 67 -3 68 -3 -7 28 c-35 155 -170 277 -334 303 -73 11 -81 11 -162 -1z"/>
<path d="M11447 2869 c-170 -25 -312 -163 -373 -365 -28 -91 -26 -305 3 -399
46 -146 136 -256 260 -317 66 -32 71 -33 193 -33 120 0 128 1 193 32 182 86
287 281 287 530 -1 175 -49 308 -152 418 -72 78 -152 120 -253 135 -78 11 -78
11 -158 -1z m227 -143 c128 -63 206 -218 206 -413 0 -102 -14 -171 -51 -249
-60 -129 -165 -198 -299 -197 -99 0 -162 27 -230 99 -87 92 -125 216 -117 379
11 203 98 346 242 398 72 26 176 19 249 -17z"/>
<path d="M12699 2870 c-92 -16 -163 -67 -222 -158 l-42 -66 -3 107 -3 107 -59
0 -60 0 0 -750 0 -750 60 0 60 0 0 305 c0 168 3 305 8 305 4 0 18 -20 31 -45
28 -53 92 -114 153 -147 38 -20 57 -23 158 -23 110 0 119 2 181 32 116 57 204
173 245 324 25 89 25 309 1 399 -47 174 -157 305 -289 344 -61 19 -163 26
-219 16z m204 -144 c272 -133 261 -715 -16 -837 -108 -47 -235 -26 -326 56
-151 136 -172 506 -40 689 86 121 246 159 382 92z"/>
<path d="M14980 2869 c-112 -20 -207 -81 -258 -168 -24 -40 -27 -56 -27 -131
0 -99 19 -145 81 -200 55 -48 122 -75 268 -110 152 -36 200 -56 241 -99 27
-29 30 -39 30 -100 0 -58 -4 -73 -27 -104 -16 -20 -53 -48 -85 -64 -51 -24
-69 -28 -148 -28 -77 0 -98 4 -147 27 -61 28 -111 85 -123 139 -5 22 -11 28
-23 25 -10 -3 -38 -10 -64 -16 -45 -12 -46 -13 -38 -41 14 -49 63 -130 95
-156 16 -15 59 -40 94 -56 56 -27 79 -31 171 -35 209 -9 357 64 417 205 24 58
22 169 -6 226 -45 93 -124 139 -315 186 -158 39 -213 62 -257 107 -31 32 -34
40 -34 98 0 53 4 68 27 98 42 56 107 82 208 86 77 3 90 1 140 -25 50 -25 107
-88 122 -134 3 -8 20 -7 61 5 31 9 57 19 57 22 0 4 -14 33 -32 66 -38 72 -103
131 -172 157 -63 23 -182 33 -256 20z"/>
<path d="M13542 2437 l3 -422 33 -67 c40 -81 102 -139 181 -169 47 -17 72 -20
156 -17 83 3 108 8 150 30 46 24 123 97 152 144 10 16 12 2 12 -73 l1 -93 65
0 65 0 0 545 0 545 -65 0 -64 0 -3 -377 c-3 -373 -3 -379 -27 -430 -60 -133
-225 -205 -362 -158 -64 22 -113 67 -146 133 l-28 57 -3 388 -3 387 -60 0 -60
0 3 -423z"/>
</g>
</svg>
