<?xml version="1.0" standalone="no"?>
<!DOCTYPE svg PUBLIC "-//W3C//DTD SVG 20010904//EN"
 "http://www.w3.org/TR/2001/REC-SVG-20010904/DTD/svg10.dtd">
<svg version="1.0" xmlns="http://www.w3.org/2000/svg"
 width="200.000000pt" height="200.000000pt" viewBox="0 0 200.000000 200.000000"
 preserveAspectRatio="xMidYMid meet">

<g transform="translate(0.000000,200.000000) scale(0.100000,-0.100000)"
fill="#000000" stroke="none">
<path d="M845 1826 c-322 -64 -568 -294 -661 -616 -14 -50 -18 -98 -18 -210 0
-160 11 -218 69 -346 104 -229 303 -397 555 -470 91 -26 327 -26 420 -1 290
81 510 295 602 587 20 65 23 95 23 230 -1 134 -4 165 -24 230 -90 290 -299
496 -587 581 -91 27 -282 34 -379 15z m290 -51 c359 -63 630 -363 652 -723 25
-417 -264 -772 -677 -833 -158 -23 -305 2 -455 76 -158 77 -274 192 -355 347
-60 115 -83 209 -83 353 -1 144 16 221 78 350 129 267 396 437 701 444 28 0
91 -6 139 -14z"/>
<path d="M868 1588 l-128 -82 0 -118 c0 -65 -2 -118 -5 -118 -3 0 -25 10 -48
22 -61 32 -155 31 -222 -2 l-50 -25 -3 -90 -3 -90 31 -18 c38 -23 38 -37 0
-65 -30 -22 -30 -23 -30 -120 l0 -97 35 -23 35 -22 0 -113 c0 -105 1 -113 23
-126 12 -8 43 -28 69 -44 l47 -30 110 72 c60 39 114 71 120 71 7 0 11 -28 11
-78 l0 -79 70 -44 c39 -24 73 -44 75 -44 2 0 36 20 75 44 l70 44 0 79 c0 44 4
78 10 78 5 0 59 -32 120 -71 l111 -70 59 36 c33 20 65 45 70 55 6 10 10 65 10
122 l0 103 35 19 35 19 0 97 0 98 -35 26 c-19 15 -35 30 -35 34 0 4 16 16 35
26 l36 20 -3 89 -3 89 -50 27 c-66 34 -160 36 -222 3 -23 -12 -45 -22 -48 -22
-3 0 -5 53 -5 119 l0 118 -129 82 c-71 44 -133 81 -138 81 -4 0 -65 -37 -135
-82z m248 -45 l104 -66 -72 -46 c-40 -26 -89 -56 -108 -68 l-36 -22 -99 62
c-54 34 -100 67 -101 72 -3 10 182 134 200 135 5 0 55 -30 112 -67z m-183
-221 l67 -44 0 -123 c0 -83 5 -136 15 -165 8 -23 15 -66 15 -94 0 -44 -6 -61
-35 -102 -39 -54 -46 -104 -20 -141 8 -11 39 -35 70 -52 l55 -31 0 -63 c0 -51
-3 -64 -20 -75 -19 -12 -20 -10 -20 47 l0 59 -50 17 c-83 28 -134 108 -115
182 3 16 23 52 43 82 30 44 37 62 36 100 -2 55 -21 214 -23 187 -2 -30 -45
-97 -90 -139 -22 -21 -45 -55 -52 -75 -14 -45 -36 -82 -49 -82 -13 0 -13 91
-1 123 5 14 30 47 54 75 43 48 73 110 65 133 -2 6 -15 -6 -28 -27 -40 -61 -68
-75 -159 -83 -81 -7 -82 -7 -128 -54 -25 -26 -49 -47 -54 -47 -5 0 -9 -29 -9
-65 0 -36 -4 -65 -8 -65 -21 0 -32 29 -32 83 0 57 2 61 55 121 59 67 97 86
174 86 52 0 94 21 109 55 15 32 16 82 2 90 -5 3 -10 45 -10 91 l0 86 38 -23
c20 -13 67 -43 105 -67z m272 -84 c-25 -15 -18 -70 13 -107 25 -30 34 -34 102
-41 93 -9 123 -24 183 -93 44 -53 47 -59 47 -114 0 -54 -11 -83 -32 -83 -4 0
-8 25 -8 55 0 52 -2 56 -50 104 -63 63 -78 71 -132 71 -91 0 -150 36 -181 109
l-11 26 -4 -23 c-6 -36 16 -82 65 -134 24 -26 48 -59 53 -73 13 -34 13 -125 0
-125 -14 0 -50 60 -50 83 0 10 -22 42 -50 71 -74 78 -90 121 -90 243 l0 101
78 49 77 49 3 -80 c2 -64 0 -81 -13 -88z m-545 14 c34 -17 80 -73 80 -98 0
-26 -48 -15 -69 15 -28 39 -81 57 -123 42 -25 -9 -36 -8 -56 5 l-25 17 34 18
c43 23 113 23 159 1z m844 0 l39 -18 -26 -17 c-20 -13 -31 -14 -56 -6 -41 14
-95 -4 -123 -42 -23 -30 -68 -41 -68 -15 0 25 45 81 80 98 44 23 104 22 154 0z
m-996 -137 c4 -28 3 -28 -20 -13 -13 8 -24 28 -26 43 -4 28 -3 28 20 13 13 -8
24 -28 26 -43z m1037 28 c-11 -45 -45 -59 -45 -20 0 20 23 41 49 46 2 1 0 -11
-4 -26z m-940 3 c17 -12 17 -13 -8 -18 -21 -4 -27 -1 -27 13 0 22 10 24 35 5z
m825 -5 c0 -15 -5 -18 -21 -14 -21 6 -21 7 -4 20 24 17 25 17 25 -6z m-767
-155 c9 -22 -18 -40 -33 -22 -6 9 -9 20 -5 26 9 15 32 12 38 -4z m77 -6 c0
-13 -7 -20 -20 -20 -13 0 -20 7 -20 20 0 13 7 20 20 20 13 0 20 -7 20 -20z
m565 10 c4 -6 1 -18 -6 -26 -11 -13 -14 -13 -27 0 -8 8 -11 19 -8 25 9 14 33
14 41 1z m80 0 c4 -6 1 -18 -6 -26 -11 -13 -14 -13 -27 0 -8 8 -11 19 -8 25 9
14 33 14 41 1z m-438 -16 c8 -22 -18 -37 -36 -20 -7 8 -10 19 -7 25 10 16 36
13 43 -5z m150 0 c8 -21 -13 -42 -28 -27 -13 13 -5 43 11 43 6 0 13 -7 17 -16z
m-211 -140 c-8 -42 -78 -120 -119 -133 -18 -6 -63 -10 -99 -9 -59 1 -71 -2
-102 -26 l-36 -27 0 36 c0 53 41 75 145 75 101 0 137 19 166 88 11 26 26 58
32 71 12 24 12 24 15 -9 2 -19 1 -48 -2 -66z m264 49 c0 -29 42 -95 73 -113
24 -15 50 -20 105 -20 75 0 139 -20 149 -46 2 -7 3 -24 1 -39 l-3 -26 -34 25
c-29 22 -46 26 -102 26 -81 0 -113 11 -158 53 -43 41 -61 84 -61 144 1 44 2
47 15 29 8 -11 15 -26 15 -33z m-561 -84 l-24 -18 -3 56 c-2 44 1 58 15 68 17
13 19 10 27 -37 9 -47 8 -52 -15 -69z m844 107 c13 -10 17 -28 17 -70 l0 -56
-25 16 c-22 14 -25 24 -25 70 0 57 4 62 33 40z m-745 -47 c-9 -6 -14 -2 -16
13 -2 11 2 25 10 29 9 6 14 2 16 -13 2 -11 -2 -25 -10 -29z m652 9 c0 -30 -25
-15 -28 17 -3 25 -2 27 12 16 9 -8 16 -22 16 -33z m-251 -52 c8 -10 8 -16 -2
-24 -17 -14 -42 2 -34 22 8 20 21 20 36 2z m-49 -85 c0 -11 -4 -22 -8 -25 -14
-9 -35 12 -29 28 9 23 37 20 37 -3z m100 0 c0 -11 -4 -22 -8 -25 -14 -9 -35
12 -29 28 9 23 37 20 37 -3z m-302 -74 c2 -10 -3 -17 -12 -17 -18 0 -29 16
-21 31 9 14 29 6 33 -14z m260 0 c2 -10 -3 -17 -12 -17 -18 0 -29 16 -21 31 9
14 29 6 33 -14z m107 2 c0 -7 -8 -15 -17 -17 -18 -3 -25 18 -11 32 10 10 28 1
28 -15z m-446 -46 c-15 -18 -34 -1 -25 22 5 14 9 15 21 5 12 -10 13 -16 4 -27z
m518 26 c14 -14 6 -39 -12 -39 -18 0 -28 17 -21 35 6 18 18 19 33 4z m-587
-54 c0 -30 -2 -55 -4 -55 -2 0 -11 -3 -19 -6 -12 -4 -16 6 -19 55 -3 58 -2 61
20 61 20 0 22 -5 22 -55z m672 -11 c-3 -59 -5 -62 -23 -51 -15 9 -19 23 -19
63 0 47 2 52 23 52 21 0 22 -4 19 -64z m-797 40 c20 -13 25 -25 25 -61 l0 -44
-30 21 c-25 18 -30 28 -30 61 0 44 1 45 35 23z m905 -30 c0 -23 -6 -42 -17
-50 -28 -21 -33 -17 -33 26 0 27 6 42 18 49 28 17 32 13 32 -25z m-470 -145
l0 -49 -45 28 c-44 26 -45 28 -45 80 l0 53 45 -32 c43 -31 45 -35 45 -80z"/>
<path d="M846 1284 c-21 -20 -20 -27 3 -55 16 -20 23 -22 38 -13 24 15 28 48
8 68 -20 20 -29 20 -49 0z"/>
<path d="M1112 1288 c-15 -15 -16 -64 -1 -73 20 -13 59 5 65 30 11 43 -34 73
-64 43z"/>
</g>
</svg>
