<?xml version="1.0" standalone="no"?>
<!DOCTYPE svg PUBLIC "-//W3C//DTD SVG 20010904//EN"
 "http://www.w3.org/TR/2001/REC-SVG-20010904/DTD/svg10.dtd">
<svg version="1.0" xmlns="http://www.w3.org/2000/svg"
 width="200.000000pt" height="200.000000pt" viewBox="0 0 200.000000 200.000000"
 preserveAspectRatio="xMidYMid meet">

<g transform="translate(0.000000,200.000000) scale(0.100000,-0.100000)"
fill="#000000" stroke="none">
<path d="M875 1834 c-65 -11 -204 -58 -270 -92 -57 -30 -163 -109 -210 -157
-83 -83 -175 -247 -211 -375 -26 -92 -26 -328 0 -420 43 -149 169 -358 248
-413 13 -9 39 -29 58 -46 46 -41 218 -126 300 -148 47 -12 105 -17 210 -17
156 -1 228 13 356 70 199 88 371 282 445 504 27 79 33 115 37 216 6 147 -7
229 -55 348 -85 213 -229 366 -436 461 -110 51 -178 66 -317 70 -69 2 -138 1
-155 -1z m329 -74 c247 -66 449 -249 536 -488 109 -298 32 -627 -198 -844
-434 -409 -1148 -206 -1304 371 -30 112 -30 287 0 401 114 422 544 671 966
560z"/>
<path d="M868 1589 l-128 -81 0 -119 c0 -65 -2 -119 -5 -119 -3 0 -25 10 -48
22 -61 32 -155 31 -222 -2 l-50 -25 -3 -90 -3 -90 31 -18 c38 -23 38 -41 0
-64 l-30 -17 0 -101 0 -100 35 -23 35 -22 0 -113 0 -112 67 -43 c37 -23 73
-40 79 -38 6 2 56 34 112 70 55 36 106 66 111 66 7 0 11 -30 11 -78 l0 -79 71
-44 c39 -24 75 -43 80 -41 6 1 39 21 75 43 l64 41 0 79 c0 43 4 79 9 79 5 0
59 -32 121 -71 l111 -70 47 27 c89 52 92 59 92 181 l0 108 35 19 35 19 0 96 0
96 -37 31 -37 31 37 24 37 24 -2 89 -3 90 -50 25 c-66 34 -160 36 -222 3 -23
-12 -45 -22 -48 -22 -3 0 -5 53 -5 119 l0 118 -129 82 c-71 44 -133 81 -138
81 -4 0 -65 -37 -135 -81z m233 -35 c49 -31 93 -62 99 -69 11 -13 -22 -38
-160 -122 l-36 -22 -99 63 c-54 34 -100 67 -101 72 -3 9 183 133 200 134 4 0
48 -25 97 -56z m-168 -232 l67 -44 0 -123 c0 -83 5 -136 15 -165 8 -23 15 -66
15 -94 0 -44 -6 -61 -35 -102 -39 -54 -46 -104 -20 -141 8 -11 39 -35 70 -52
l55 -31 0 -63 c0 -51 -3 -64 -20 -75 -19 -12 -20 -10 -20 47 l0 59 -50 17
c-83 28 -134 108 -115 182 4 16 25 55 47 88 38 58 40 62 33 115 -4 30 -11 84
-15 120 -4 36 -8 56 -8 46 -3 -30 -47 -97 -91 -139 -24 -24 -46 -57 -56 -87
-16 -48 -40 -79 -52 -67 -9 9 -5 90 6 119 5 14 30 48 54 76 44 49 73 110 64
135 -2 6 -11 -1 -19 -18 -35 -65 -92 -95 -185 -95 -52 0 -57 -2 -106 -50 -28
-27 -55 -50 -59 -50 -4 0 -8 -29 -8 -65 0 -36 -4 -65 -8 -65 -21 0 -32 29 -32
83 0 56 2 61 51 117 57 65 105 90 175 90 81 0 124 38 124 110 0 16 -4 32 -10
35 -5 3 -10 45 -10 91 l0 86 38 -23 c20 -13 67 -43 105 -67z m287 4 c0 -53 -4
-77 -15 -86 -27 -22 -18 -75 19 -114 31 -33 38 -36 89 -36 81 0 127 -22 186
-90 49 -56 51 -61 51 -117 0 -54 -11 -83 -32 -83 -4 0 -8 25 -8 55 0 52 -2 56
-50 104 -63 63 -78 71 -132 71 -93 0 -138 27 -178 106 -17 34 -19 36 -20 14 0
-49 20 -93 65 -141 25 -27 50 -60 55 -74 13 -34 13 -125 0 -125 -14 0 -50 60
-50 83 0 10 -22 42 -50 71 -74 78 -90 121 -90 242 l0 102 73 46 c39 25 75 46
80 46 4 0 7 -33 7 -74z m-559 -76 c38 -20 79 -70 79 -97 0 -25 -49 -14 -71 17
-29 38 -79 56 -120 41 -25 -8 -36 -7 -56 6 l-26 17 39 18 c52 23 106 22 155
-2z m843 2 l39 -18 -26 -17 c-20 -13 -31 -14 -56 -6 -41 15 -95 -4 -122 -42
-13 -18 -29 -29 -45 -29 -30 0 -31 17 -1 61 43 65 133 86 211 51z m-1004 -106
c6 -8 10 -24 8 -36 -3 -19 -4 -20 -25 -5 -25 18 -31 55 -9 55 7 0 19 -7 26
-14z m94 8 c22 -8 20 -21 -4 -27 -15 -4 -20 0 -20 14 0 21 1 22 24 13z m836
-13 c0 -15 -5 -18 -21 -14 -21 6 -21 7 -4 20 24 17 25 17 25 -6z m117 1 c1
-11 -11 -26 -27 -36 -29 -16 -29 -16 -25 6 4 21 30 48 45 48 3 0 6 -8 7 -18z
m-883 -157 c3 -9 -1 -18 -10 -22 -19 -7 -39 11 -30 26 10 16 33 13 40 -4z m76
-5 c0 -13 -7 -20 -20 -20 -13 0 -20 7 -20 20 0 13 7 20 20 20 13 0 20 -7 20
-20z m565 10 c4 -6 1 -18 -6 -26 -11 -13 -14 -13 -27 0 -8 8 -11 19 -8 25 9
14 33 14 41 1z m80 0 c4 -6 1 -18 -6 -26 -11 -13 -14 -13 -27 0 -8 8 -11 19
-8 25 9 14 33 14 41 1z m-438 -16 c7 -20 -17 -37 -34 -23 -15 13 -6 39 13 39
8 0 17 -7 21 -16z m150 0 c8 -21 -13 -42 -28 -27 -13 13 -5 43 11 43 6 0 13
-7 17 -16z m-217 -147 c-14 -49 -72 -113 -113 -127 -18 -5 -63 -9 -99 -8 -59
1 -71 -2 -102 -26 l-36 -27 0 36 c0 53 41 75 145 75 101 0 137 19 166 88 11
26 25 58 32 72 11 25 11 25 15 -10 2 -19 -1 -52 -8 -73z m270 55 c14 -54 45
-99 79 -116 18 -10 63 -17 113 -19 103 -3 138 -22 138 -74 0 -36 -1 -36 -52 0
-20 15 -41 19 -91 18 -78 -1 -111 10 -156 52 -42 40 -61 84 -61 142 0 54 15
52 30 -3z m300 -44 l0 -58 -25 16 c-22 14 -25 24 -25 70 0 54 0 54 25 42 23
-10 25 -17 25 -70z m-844 26 c6 -42 4 -49 -17 -65 l-24 -18 -3 56 c-2 38 1 59
10 64 23 15 27 10 34 -37z m94 22 c0 -7 -7 -19 -15 -26 -12 -10 -15 -9 -15 7
0 11 3 23 7 26 11 12 23 8 23 -7z m638 -14 c3 -16 -1 -20 -12 -16 -19 7 -22
48 -3 42 6 -3 13 -14 15 -26z m-245 -56 c8 -19 -15 -37 -32 -26 -17 10 -7 40
13 40 7 0 16 -6 19 -14z m-53 -85 c0 -11 -4 -22 -8 -25 -14 -9 -35 12 -29 28
9 23 37 20 37 -3z m100 1 c0 -24 -8 -32 -26 -25 -22 8 -17 43 6 43 13 0 20 -7
20 -18z m-302 -75 c2 -10 -3 -17 -12 -17 -18 0 -29 16 -21 31 9 14 29 6 33
-14z m260 0 c2 -10 -3 -17 -12 -17 -18 0 -29 16 -21 31 9 14 29 6 33 -14z
m107 2 c0 -7 -8 -15 -17 -17 -18 -3 -25 18 -11 32 10 10 28 1 28 -15z m72 -20
c14 -14 6 -39 -12 -39 -18 0 -28 17 -21 35 6 18 18 19 33 4z m-587 -48 c0 -43
-12 -71 -32 -71 -4 0 -8 26 -8 58 0 51 2 58 20 59 17 2 20 -4 20 -46z m73 42
c9 -9 -13 -34 -24 -27 -14 8 -11 34 4 34 8 0 17 -3 20 -7z m599 -60 c-3 -58
-5 -61 -23 -50 -15 9 -19 23 -19 64 0 49 2 53 23 51 21 -2 22 -6 19 -65z
m-797 41 c20 -13 25 -25 25 -61 l0 -44 -30 21 c-25 18 -30 28 -30 61 0 44 1
45 35 23z m905 -28 c0 -25 -7 -40 -22 -51 -23 -15 -23 -15 -26 21 -2 26 2 40
15 50 27 20 33 17 33 -20z m-470 -147 l0 -49 -45 28 c-44 26 -45 28 -45 80 l0
53 45 -32 c43 -31 45 -35 45 -80z"/>
<path d="M846 1284 c-21 -20 -20 -27 3 -55 16 -20 23 -22 38 -13 24 15 28 48
8 68 -20 20 -29 20 -49 0z"/>
<path d="M1111 1286 c-7 -8 -11 -27 -9 -43 3 -24 8 -28 33 -28 23 0 32 6 39
27 16 46 -33 80 -63 44z"/>
</g>
</svg>
